<svg xmlns="http://www.w3.org/2000/svg" xmlns:xlink="http://www.w3.org/1999/xlink" xmlns:svgjs="http://svgjs.dev/svgjs" width="1000" height="1000"><path d="M0 0h1000v1000H0z"/><svg viewBox="0 0 396 96" data-background-color="#ffffff" height="242" width="1000" xmlns="http://www.w3.org/2000/svg" xmlns:xlink="http://www.w3.org/1999/xlink" transform="matrix(.7 0 0 .7 149.576 415.537)"><svg height="96.268" width="395.52" transform="translate(.24 -.134)"><svg viewBox="0 0 542.637 132.076" height="96.268" width="395.52"><svg height="63.713" width="395.52" transform="translate(147.117 34.182)"><svg height="63.713" width="395.52"><svg height="63.713" width="395.52"><svg width="395.52" viewBox="1.5 -36.3 228.43 36.8" height="63.713" data-palette-color="#464e2e"><path d="M13.25-34.3q1.75 0 3.35.32 1.6.33 2.93.75 1.32.43 2.25.88.92.45 1.27.7l-2.45 4.3-.65-.35q-.65-.35-1.7-.8-1.05-.45-2.3-.8-1.25-.35-2.4-.35-1.8 0-3.12.85-1.33.85-1.33 2.65 0 2.25 1.45 3.67 1.45 1.43 4.55 2.63 2 .8 3.58 1.67 1.57.88 2.67 2.03 1.1 1.15 1.68 2.65.57 1.5.57 3.6 0 1.9-.72 3.75-.73 1.85-2.15 3.27-1.43 1.43-3.53 2.3-2.1.88-4.85.88-1.95 0-3.7-.4-1.75-.4-3.17-.93-1.43-.52-2.45-1.07Q2-2.65 1.5-2.95l2.1-4.6.9.5q.9.5 2.2 1.1 1.3.6 2.75 1.1 1.45.5 2.5.5 2.65 0 3.95-1.3 1.3-1.3 1.3-3.65 0-1.1-.35-1.93-.35-.82-1-1.42t-1.57-1.08q-.93-.47-2.08-.92-2.25-.95-4.02-1.9-1.78-.95-3.03-2.18-1.25-1.22-1.9-2.8-.65-1.57-.65-3.77 0-1.85.8-3.48.8-1.62 2.2-2.85 1.4-1.22 3.35-1.95 1.95-.72 4.3-.72zM48.7-23.85v11.8q0 3 .37 5.02.38 2.03.83 3.28.55 1.5 1.2 2.35L46.65.4q-.65-.65-1.2-1.55-.45-.8-.85-1.93-.4-1.12-.5-2.67-.85 3-2.73 4.52Q39.5.3 36.3.3q-2.35 0-4.08-.88-1.72-.87-2.87-2.5Q28.2-4.7 27.65-7t-.55-5.1q0-2.85.87-5.28.88-2.42 2.45-4.17Q32-23.3 34.2-24.3q2.2-1 4.85-1 1.5 0 3.12.22 1.63.23 3.03.48 1.4.25 2.37.47.98.23 1.13.28zM37.25-3.7q1.25 0 2.3-.85 1.05-.85 1.82-2.23.78-1.37 1.2-3.15.43-1.77.43-3.62v-7.2q-.5-.15-1.5-.35-1-.2-1.8-.2-1.9 0-3.13.65-1.22.65-1.97 1.8t-1.05 2.75q-.3 1.6-.3 3.5 0 1.75.1 3.35t.52 2.85q.43 1.25 1.23 1.98.8.72 2.15.72zM69.8-24.9h5.79l.11.4q.05.45.14 1.17.11.73.18 1.65.07.93.07 1.88 0 5.55-.82 9.37-.82 3.83-2.5 6.2-1.68 2.38-4.25 3.43Q65.95.25 62.45.25q-3.95 0-5.63-2.27-1.67-2.28-1.67-6.28v-16.6h5.7v16.45q0 2.1.75 3.4.75 1.3 2.55 1.3 1.8 0 3-1.35 1.19-1.35 1.9-3.53.7-2.17 1-4.95.29-2.77.29-5.62 0-1.05-.07-2.08-.07-1.02-.2-1.82-.12-.8-.17-1.3l-.1-.5zm21.69-.6q5.75 0 8.35 3.4 2.6 3.4 2.6 9.35 0 2.8-.7 5.22-.7 2.43-2.12 4.2-1.43 1.78-3.58 2.8Q93.89.5 91.04.5t-4.92-.88q-2.08-.87-3.43-2.52t-1.97-4q-.63-2.35-.63-5.3 0-2.85.7-5.28.7-2.42 2.13-4.2 1.42-1.77 3.57-2.8 2.15-1.02 5-1.02zm-.5 4.2q-1.45 0-2.37.65-.93.65-1.45 1.83-.53 1.17-.73 2.75-.2 1.57-.2 3.37 0 1.85.23 3.5.22 1.65.82 2.87.6 1.23 1.63 1.93 1.02.7 2.62.7 1.45 0 2.38-.65.92-.65 1.45-1.83.52-1.17.72-2.72.2-1.55.2-3.35 0-1.85-.22-3.5-.23-1.65-.83-2.9t-1.62-1.95q-1.03-.7-2.63-.7zm27.6 1.6q-.9 0-1.8.45t-1.6 1.22q-.7.78-1.15 1.88-.45 1.1-.45 2.45V0h-5.7v-12.6q0-3-.4-5.03-.4-2.02-.85-3.27-.55-1.45-1.2-2.35l4.5-1.8q.45.55.95 1.35.4.7.8 1.65t.65 2.25q1-2.9 2.9-4.18 1.9-1.27 4.3-1.27 1.15 0 2.15.27 1 .28.95.28l-1.6 5.55q.05 0-.57-.28-.63-.27-1.88-.27zm7.3 19.7v-33.85h5.95V-4.5h12.65V0h-18.6zm30.75-25.5q5.75 0 8.35 3.4 2.6 3.4 2.6 9.35 0 2.8-.7 5.22-.7 2.43-2.13 4.2-1.42 1.78-3.57 2.8-2.15 1.03-5 1.03t-4.93-.88q-2.07-.87-3.42-2.52t-1.98-4q-.62-2.35-.62-5.3 0-2.85.7-5.28.7-2.42 2.12-4.2 1.43-1.77 3.58-2.8 2.15-1.02 5-1.02zm-.5 4.2q-1.45 0-2.38.65-.92.65-1.45 1.83-.52 1.17-.72 2.75-.2 1.57-.2 3.37 0 1.85.22 3.5.23 1.65.83 2.87.6 1.23 1.62 1.93 1.03.7 2.63.7 1.45 0 2.37-.65.93-.65 1.45-1.83.53-1.17.73-2.72.2-1.55.2-3.35 0-1.85-.23-3.5-.22-1.65-.82-2.9t-1.63-1.95q-1.02-.7-2.62-.7zm33.14-.8l-3.2 3.05q-.75-.85-1.52-1.45-.78-.6-2.08-.6-.75 0-1.67.22-.93.23-1.73 1.1-.8.88-1.32 2.58-.53 1.7-.53 4.6 0 2.95.53 4.67.52 1.73 1.35 2.68.82.95 1.77 1.22.95.28 1.85.28.7 0 1.45-.13.75-.12 1.45-.29.7-.18 1.23-.33.52-.15.77-.25l1.4 3.6q-.15.05-.67.3-.53.25-1.43.5-.9.25-2.15.48-1.25.22-2.8.22-2.9 0-4.95-.88-2.05-.87-3.37-2.47-1.33-1.6-1.95-3.85-.63-2.25-.63-5 0-3.3.88-5.85.87-2.55 2.42-4.28 1.55-1.72 3.65-2.62 2.1-.9 4.5-.9 2.35 0 3.98.9 1.62.9 2.77 2.5zm23.4-1.75v11.8q0 3 .38 5.02.37 2.03.82 3.28.55 1.5 1.2 2.35L210.63.4q-.65-.65-1.2-1.55-.45-.8-.85-1.93-.4-1.12-.5-2.67-.85 3-2.72 4.52Q203.48.3 200.28.3q-2.35 0-4.07-.88-1.73-.87-2.88-2.5-1.15-1.62-1.7-3.92t-.55-5.1q0-2.85.88-5.28.87-2.42 2.45-4.17 1.57-1.75 3.77-2.75t4.85-1q1.5 0 3.13.22 1.62.23 3.02.48 1.4.25 2.38.47.97.23 1.12.28zM201.23-3.7q1.25 0 2.3-.85 1.05-.85 1.83-2.23.77-1.37 1.2-3.15.42-1.77.42-3.62v-7.2q-.5-.15-1.5-.35-1-.2-1.8-.2-1.9 0-3.12.65-1.23.65-1.98 1.8t-1.05 2.75q-.3 1.6-.3 3.5 0 1.75.1 3.35t.53 2.85q.42 1.25 1.22 1.98.8.72 2.15.72zM224.68.2q-2.85 0-4.2-1.58-1.35-1.57-1.35-4.02v-29.85l5.7-1.05v30.35q0 1.15.45 1.6.45.45 1.3.45.5 0 .97-.05.48-.05.88-.15.45-.1.8-.2l.7 3.6q-.65.25-1.45.45-.7.2-1.65.33-.95.12-2.15.12z" fill="#fff" class="wordmark-text-0" data-fill-palette-color="primary"/></svg></svg></svg></svg><svg height="132.076" width="132.076"><svg/><svg height="132.076" width="132.076"><path d="M39.623 132.076C17.739 132.076 0 114.336 0 92.453v-52.83C0 17.739 17.74 0 39.623 0h52.83c21.884 0 39.623 17.74 39.623 39.623v52.83c0 21.884-17.74 39.623-39.623 39.623z" fill="#fff" font-family="none" font-weight="none" font-size="none" text-anchor="none" style="mix-blend-mode:normal" data-fill-palette-color="accent"/><svg height="79.246" width="79.246" transform="translate(26.415 26.415)"><svg xmlns="http://www.w3.org/2000/svg" viewBox="2 2 60 60" height="79.246" width="79.246" class="icon-cg-0" data-fill-palette-color="quaternary"><path d="M61 48H24a1 1 0 00-1 1v1h-7.184A2.996 2.996 0 0013 48H5c-1.654 0-3 1.346-3 3v2c0 1.654 1.346 3 3 3h8c1.654 0 3-1.346 3-3v-1h7v1c0 4.963 4.038 9 9 9h21c4.962 0 9-4.037 9-9v-4a1 1 0 00-1-1zm-47 5c0 .552-.449 1-1 1H5c-.551 0-1-.448-1-1v-2c0-.552.449-1 1-1h8c.551 0 1 .448 1 1v2zm15-3h2v1a1.001 1.001 0 01-2 0v-1zm4 0h3v3.5c0 .827-.673 1.5-1.5 1.5s-1.5-.673-1.5-1.5V50zm27 3c0 3.859-3.14 7-7 7H32c-3.86 0-7-3.141-7-7v-3h2v1a3.004 3.004 0 004.015 2.823A3.504 3.504 0 0034.5 57c1.93 0 3.5-1.57 3.5-3.5V50h22v3zM20.439 25.296l.288 1.441a5.001 5.001 0 001.833 2.966l7.775 6.047 1.129 1.129A4.984 4.984 0 0035 38.341c1.28 0 2.561-.487 3.536-1.462l2.343-2.344c.944-.943 1.465-2.199 1.465-3.535s-.521-2.592-1.465-3.535l-1.125-1.125-6.051-7.779a5.003 5.003 0 00-2.967-1.833l-1.441-.288a4.994 4.994 0 00-4.516 1.367l-2.973 2.973a4.992 4.992 0 00-1.367 4.516zm19.025 7.825l-2.343 2.344a3.008 3.008 0 01-4.243 0L32.414 35 39 28.414l.464.465c.567.566.879 1.319.879 2.121s-.312 1.555-.879 2.121zM23.221 22.193l2.973-2.973a2.998 2.998 0 012.71-.82l1.441.288a3.003 3.003 0 011.78 1.101l5.544 7.128-6.751 6.752-7.128-5.544a3.008 3.008 0 01-1.101-1.78l-.289-1.442a2.995 2.995 0 01.821-2.71zm28.443-.443l7.716-6.001a4.986 4.986 0 001.862-3.126l.405-2.429a5.006 5.006 0 00-1.396-4.356l-2.089-2.09a5.009 5.009 0 00-4.357-1.396l-2.429.404a4.986 4.986 0 00-3.125 1.862l-6.005 7.721-1.125 1.125c-.945.944-1.465 2.199-1.465 3.535s.521 2.592 1.465 3.535l2.343 2.344A4.984 4.984 0 0047 24.34a4.99 4.99 0 003.536-1.462l1.128-1.128zM49.831 5.848a2.99 2.99 0 011.875-1.118l2.43-.404a3.011 3.011 0 012.614.837l2.089 2.09c.684.684.997 1.66.838 2.614l-.405 2.429a2.993 2.993 0 01-1.117 1.875l-7.07 5.499-6.751-6.752 5.497-7.07zm-.709 15.617a3.008 3.008 0 01-4.243 0l-2.343-2.344c-.567-.566-.879-1.319-.879-2.121s.312-1.555.879-2.121l.464-.465L49.586 21l-.464.465zM36 43h2v2h-2zm4-2h2v2h-2zm4 3h2v2h-2zm2-11h2v2h-2zm0-5h2v2h-2zm-1 10h2v2h-2z" data-fill-palette-color="quaternary"/><path data-fill-palette-color="quaternary" d="M27.293 27.293l4-4 1.414 1.414-4 4zM55 12c0-1.654-1.346-3-3-3s-3 1.346-3 3 1.346 3 3 3 3-1.346 3-3zm-4 0a1.001 1.001 0 111 1c-.551 0-1-.448-1-1zM26 6h2v8h-2zm0-4h2v2h-2zm-5 6h2v8h-2zm0-4h2v2h-2z"/></svg></svg></svg></svg></svg></svg></svg></svg>