<svg xmlns="http://www.w3.org/2000/svg" version="1.1" xmlns:xlink="http://www.w3.org/1999/xlink" xmlns:svgjs="http://svgjs.dev/svgjs" width="2000" height="484" viewBox="0 0 2000 484"><g transform="matrix(1,0,0,1,-1.2121212121212466,0.6763522658262673)"><svg viewBox="0 0 396 96" data-background-color="#ffffff" preserveAspectRatio="xMidYMid meet" height="484" width="2000" xmlns="http://www.w3.org/2000/svg" xmlns:xlink="http://www.w3.org/1999/xlink"><g id="tight-bounds" transform="matrix(1,0,0,1,0.2400000000000091,-0.13415251553578855)"><svg viewBox="0 0 395.52 96.26830503107158" height="96.26830503107158" width="395.52"><g><svg viewBox="0 0 542.6371600539987 132.0761520157584" height="96.26830503107158" width="395.52"><g transform="matrix(1,0,0,1,147.1171600539987,34.181792357189764)"><svg viewBox="0 0 395.52 63.71256730137886" height="63.71256730137886" width="395.52"><g id="textblocktransform"><svg viewBox="0 0 395.52 63.71256730137886" height="63.71256730137886" width="395.52" id="textblock"><g><svg viewBox="0 0 395.52 63.71256730137886" height="63.71256730137886" width="395.52"><g transform="matrix(1,0,0,1,0,0)"><svg width="395.52" viewBox="1.5 -36.3 228.43 36.8" height="63.71256730137886" data-palette-color="#464e2e"><path d="M13.25-34.3L13.25-34.3Q15-34.3 16.6-33.98 18.2-33.65 19.53-33.23 20.85-32.8 21.78-32.35 22.7-31.9 23.05-31.65L23.05-31.65 20.6-27.35 19.95-27.7Q19.3-28.05 18.25-28.5 17.2-28.95 15.95-29.3 14.7-29.65 13.55-29.65L13.55-29.65Q11.75-29.65 10.43-28.8 9.1-27.95 9.1-26.15L9.1-26.15Q9.1-23.9 10.55-22.48 12-21.05 15.1-19.85L15.1-19.85Q17.1-19.05 18.68-18.18 20.25-17.3 21.35-16.15 22.45-15 23.03-13.5 23.6-12 23.6-9.9L23.6-9.9Q23.6-8 22.88-6.15 22.15-4.3 20.73-2.88 19.3-1.45 17.2-0.58 15.1 0.3 12.35 0.3L12.35 0.3Q10.4 0.3 8.65-0.1 6.9-0.5 5.48-1.03 4.05-1.55 3.03-2.1 2-2.65 1.5-2.95L1.5-2.95 3.6-7.55 4.5-7.05Q5.4-6.55 6.7-5.95 8-5.35 9.45-4.85 10.9-4.35 11.95-4.35L11.95-4.35Q14.6-4.35 15.9-5.65 17.2-6.95 17.2-9.3L17.2-9.3Q17.2-10.4 16.85-11.23 16.5-12.05 15.85-12.65 15.2-13.25 14.28-13.73 13.35-14.2 12.2-14.65L12.2-14.65Q9.95-15.6 8.18-16.55 6.4-17.5 5.15-18.73 3.9-19.95 3.25-21.53 2.6-23.1 2.6-25.3L2.6-25.3Q2.6-27.15 3.4-28.78 4.2-30.4 5.6-31.63 7-32.85 8.95-33.58 10.9-34.3 13.25-34.3ZM48.7-23.85L48.7-12.05Q48.7-9.05 49.07-7.03 49.45-5 49.9-3.75L49.9-3.75Q50.45-2.25 51.1-1.4L51.1-1.4 46.65 0.4Q46-0.25 45.45-1.15L45.45-1.15Q45-1.95 44.6-3.08 44.2-4.2 44.1-5.75L44.1-5.75Q43.25-2.75 41.37-1.23 39.5 0.3 36.3 0.3L36.3 0.3Q33.95 0.3 32.22-0.58 30.5-1.45 29.35-3.08 28.2-4.7 27.65-7 27.1-9.3 27.1-12.1L27.1-12.1Q27.1-14.95 27.97-17.38 28.85-19.8 30.42-21.55 32-23.3 34.2-24.3 36.4-25.3 39.05-25.3L39.05-25.3Q40.55-25.3 42.17-25.08 43.8-24.85 45.2-24.6 46.6-24.35 47.57-24.13 48.55-23.9 48.7-23.85L48.7-23.85ZM37.25-3.7Q38.5-3.7 39.55-4.55 40.6-5.4 41.37-6.78 42.15-8.15 42.57-9.93 43-11.7 43-13.55L43-13.55 43-20.75Q42.5-20.9 41.5-21.1 40.5-21.3 39.7-21.3L39.7-21.3Q37.8-21.3 36.57-20.65 35.35-20 34.6-18.85 33.85-17.7 33.55-16.1 33.25-14.5 33.25-12.6L33.25-12.6Q33.25-10.85 33.35-9.25 33.45-7.65 33.87-6.4 34.3-5.15 35.1-4.42 35.9-3.7 37.25-3.7L37.25-3.7ZM69.8-24.9L75.59-24.9 75.7-24.5Q75.75-24.05 75.84-23.33 75.95-22.6 76.02-21.68 76.09-20.75 76.09-19.8L76.09-19.8Q76.09-14.25 75.27-10.43 74.45-6.6 72.77-4.23 71.09-1.85 68.52-0.8 65.95 0.25 62.45 0.25L62.45 0.25Q58.5 0.25 56.82-2.02 55.15-4.3 55.15-8.3L55.15-8.3 55.15-24.9 60.85-24.9 60.85-8.45Q60.85-6.35 61.6-5.05 62.35-3.75 64.15-3.75L64.15-3.75Q65.95-3.75 67.15-5.1 68.34-6.45 69.05-8.63 69.75-10.8 70.05-13.58 70.34-16.35 70.34-19.2L70.34-19.2Q70.34-20.25 70.27-21.28 70.2-22.3 70.07-23.1 69.95-23.9 69.9-24.4L69.9-24.4 69.8-24.9ZM91.49-25.5Q97.24-25.5 99.84-22.1 102.44-18.7 102.44-12.75L102.44-12.75Q102.44-9.95 101.74-7.53 101.04-5.1 99.62-3.33 98.19-1.55 96.04-0.53 93.89 0.5 91.04 0.5L91.04 0.5Q88.19 0.5 86.12-0.38 84.04-1.25 82.69-2.9 81.34-4.55 80.72-6.9 80.09-9.25 80.09-12.2L80.09-12.2Q80.09-15.05 80.79-17.48 81.49-19.9 82.92-21.68 84.34-23.45 86.49-24.48 88.64-25.5 91.49-25.5L91.49-25.5ZM90.99-21.3Q89.54-21.3 88.62-20.65 87.69-20 87.17-18.82 86.64-17.65 86.44-16.07 86.24-14.5 86.24-12.7L86.24-12.7Q86.24-10.85 86.47-9.2 86.69-7.55 87.29-6.33 87.89-5.1 88.92-4.4 89.94-3.7 91.54-3.7L91.54-3.7Q92.99-3.7 93.92-4.35 94.84-5 95.37-6.18 95.89-7.35 96.09-8.9 96.29-10.45 96.29-12.25L96.29-12.25Q96.29-14.1 96.07-15.75 95.84-17.4 95.24-18.65 94.64-19.9 93.62-20.6 92.59-21.3 90.99-21.3L90.99-21.3ZM118.59-19.7Q117.69-19.7 116.79-19.25 115.89-18.8 115.19-18.03 114.49-17.25 114.04-16.15 113.59-15.05 113.59-13.7L113.59-13.7 113.59 0 107.89 0 107.89-12.6Q107.89-15.6 107.49-17.63 107.09-19.65 106.64-20.9L106.64-20.9Q106.09-22.35 105.44-23.25L105.44-23.25 109.94-25.05Q110.39-24.5 110.89-23.7L110.89-23.7Q111.29-23 111.69-22.05 112.09-21.1 112.34-19.8L112.34-19.8Q113.34-22.7 115.24-23.98 117.14-25.25 119.54-25.25L119.54-25.25Q120.69-25.25 121.69-24.98 122.69-24.7 122.64-24.7L122.64-24.7 121.04-19.15Q121.09-19.15 120.47-19.43 119.84-19.7 118.59-19.7L118.59-19.7ZM125.89 0L125.89-33.85 131.84-33.85 131.84-4.5 144.49-4.5 144.49 0 125.89 0ZM156.64-25.5Q162.39-25.5 164.99-22.1 167.59-18.7 167.59-12.75L167.59-12.75Q167.59-9.95 166.89-7.53 166.19-5.1 164.76-3.33 163.34-1.55 161.19-0.53 159.04 0.5 156.19 0.5L156.19 0.5Q153.34 0.5 151.26-0.38 149.19-1.25 147.84-2.9 146.49-4.55 145.86-6.9 145.24-9.25 145.24-12.2L145.24-12.2Q145.24-15.05 145.94-17.48 146.64-19.9 148.06-21.68 149.49-23.45 151.64-24.48 153.79-25.5 156.64-25.5L156.64-25.5ZM156.14-21.3Q154.69-21.3 153.76-20.65 152.84-20 152.31-18.82 151.79-17.65 151.59-16.07 151.39-14.5 151.39-12.7L151.39-12.7Q151.39-10.85 151.61-9.2 151.84-7.55 152.44-6.33 153.04-5.1 154.06-4.4 155.09-3.7 156.69-3.7L156.69-3.7Q158.14-3.7 159.06-4.35 159.99-5 160.51-6.18 161.04-7.35 161.24-8.9 161.44-10.45 161.44-12.25L161.44-12.25Q161.44-14.1 161.21-15.75 160.99-17.4 160.39-18.65 159.79-19.9 158.76-20.6 157.74-21.3 156.14-21.3L156.14-21.3ZM189.28-22.1L186.08-19.05Q185.33-19.9 184.56-20.5 183.78-21.1 182.48-21.1L182.48-21.1Q181.73-21.1 180.81-20.88 179.88-20.65 179.08-19.78 178.28-18.9 177.76-17.2 177.23-15.5 177.23-12.6L177.23-12.6Q177.23-9.65 177.76-7.93 178.28-6.2 179.11-5.25 179.93-4.3 180.88-4.03 181.83-3.75 182.73-3.75L182.73-3.75Q183.43-3.75 184.18-3.88 184.93-4 185.63-4.17 186.33-4.35 186.86-4.5 187.38-4.65 187.63-4.75L187.63-4.75 189.03-1.15Q188.88-1.1 188.36-0.85 187.83-0.6 186.93-0.35 186.03-0.1 184.78 0.13 183.53 0.35 181.98 0.35L181.98 0.35Q179.08 0.35 177.03-0.53 174.98-1.4 173.66-3 172.33-4.6 171.71-6.85 171.08-9.1 171.08-11.85L171.08-11.85Q171.08-15.15 171.96-17.7 172.83-20.25 174.38-21.98 175.93-23.7 178.03-24.6 180.13-25.5 182.53-25.5L182.53-25.5Q184.88-25.5 186.51-24.6 188.13-23.7 189.28-22.1L189.28-22.1ZM212.68-23.85L212.68-12.05Q212.68-9.05 213.06-7.03 213.43-5 213.88-3.75L213.88-3.75Q214.43-2.25 215.08-1.4L215.08-1.4 210.63 0.4Q209.98-0.25 209.43-1.15L209.43-1.15Q208.98-1.95 208.58-3.08 208.18-4.2 208.08-5.75L208.08-5.75Q207.23-2.75 205.36-1.23 203.48 0.3 200.28 0.3L200.28 0.3Q197.93 0.3 196.21-0.58 194.48-1.45 193.33-3.08 192.18-4.7 191.63-7 191.08-9.3 191.08-12.1L191.08-12.1Q191.08-14.95 191.96-17.38 192.83-19.8 194.41-21.55 195.98-23.3 198.18-24.3 200.38-25.3 203.03-25.3L203.03-25.3Q204.53-25.3 206.16-25.08 207.78-24.85 209.18-24.6 210.58-24.35 211.56-24.13 212.53-23.9 212.68-23.85L212.68-23.85ZM201.23-3.7Q202.48-3.7 203.53-4.55 204.58-5.4 205.36-6.78 206.13-8.15 206.56-9.93 206.98-11.7 206.98-13.55L206.98-13.55 206.98-20.75Q206.48-20.9 205.48-21.1 204.48-21.3 203.68-21.3L203.68-21.3Q201.78-21.3 200.56-20.65 199.33-20 198.58-18.85 197.83-17.7 197.53-16.1 197.23-14.5 197.23-12.6L197.23-12.6Q197.23-10.85 197.33-9.25 197.43-7.65 197.86-6.4 198.28-5.15 199.08-4.42 199.88-3.7 201.23-3.7L201.23-3.7ZM224.68 0.2Q221.83 0.2 220.48-1.38 219.13-2.95 219.13-5.4L219.13-5.4 219.13-35.25 224.83-36.3 224.83-5.95Q224.83-4.8 225.28-4.35 225.73-3.9 226.58-3.9L226.58-3.9Q227.08-3.9 227.55-3.95 228.03-4 228.43-4.1L228.43-4.1Q228.88-4.2 229.23-4.3L229.23-4.3 229.93-0.7Q229.28-0.45 228.48-0.25L228.48-0.25Q227.78-0.05 226.83 0.08 225.88 0.2 224.68 0.2L224.68 0.2Z" opacity="1" transform="matrix(1,0,0,1,0,0)" fill="#ffffff" class="wordmark-text-0" data-fill-palette-color="primary" id="text-0"></path></svg></g></svg></g></svg></g></svg></g><g><svg viewBox="0 0 132.0761520157584 132.0761520157584" height="132.0761520157584" width="132.0761520157584"><g><svg></svg></g><g id="icon-0"><svg viewBox="0 0 132.0761520157584 132.0761520157584" height="132.0761520157584" width="132.0761520157584"><g><path transform="scale(1.32076,1.32076)" d="M30 100c-16.569 0-30-13.431-30-30v-40c0-16.569 13.431-30 30-30h40c16.569 0 30 13.431 30 30v40c0 16.569-13.431 30-30 30z" fill="#ffffff" fill-rule="nonzero" stroke="none" stroke-width="1" stroke-linecap="butt" stroke-linejoin="miter" stroke-miterlimit="10" stroke-dasharray="" stroke-dashoffset="0" font-family="none" font-weight="none" font-size="none" text-anchor="none" style="mix-blend-mode: normal" data-fill-palette-color="accent"></path></g><g transform="matrix(1,0,0,1,26.415230403151682,26.415230403151682)"><svg viewBox="0 0 79.24569120945503 79.24569120945503" height="79.24569120945503" width="79.24569120945503"><g><svg xmlns="http://www.w3.org/2000/svg" xmlns:xlink="http://www.w3.org/1999/xlink" version="1.1" x="0" y="0" viewBox="2 2 60 60" style="enable-background:new 0 0 64 64;" xml:space="preserve" height="79.24569120945503" width="79.24569120945503" class="icon-cg-0" data-fill-palette-color="quaternary" id="cg-0"><path d="M61 48H24c-0.552 0-1 0.447-1 1v1h-7.184c-0.414-1.161-1.514-2-2.816-2H5c-1.654 0-3 1.346-3 3v2c0 1.654 1.346 3 3 3h8c1.654 0 3-1.346 3-3v-1h7v1c0 4.963 4.038 9 9 9h21c4.962 0 9-4.037 9-9v-4C62 48.447 61.552 48 61 48zM14 53c0 0.552-0.449 1-1 1H5c-0.551 0-1-0.448-1-1v-2c0-0.552 0.449-1 1-1h8c0.551 0 1 0.448 1 1V53zM29 50h2v1c0 0.552-0.449 1-1 1s-1-0.448-1-1V50zM33 50h3v3.5c0 0.827-0.673 1.5-1.5 1.5S33 54.327 33 53.5V50zM60 53c0 3.859-3.14 7-7 7H32c-3.86 0-7-3.141-7-7v-3h2v1c0 1.654 1.346 3 3 3 0.356 0 0.698-0.062 1.015-0.177C31.178 55.603 32.679 57 34.5 57c1.93 0 3.5-1.57 3.5-3.5V50h22V53z" fill="#000000" data-fill-palette-color="quaternary"></path><path d="M20.439 25.296l0.288 1.441c0.235 1.176 0.886 2.229 1.833 2.966l7.775 6.047 1.129 1.129c0.975 0.975 2.255 1.462 3.536 1.462 1.28 0 2.561-0.487 3.536-1.462l2.343-2.344c0.944-0.943 1.465-2.199 1.465-3.535s-0.521-2.592-1.465-3.535l-1.125-1.125-6.051-7.779c-0.736-0.946-1.79-1.598-2.967-1.833l-1.441-0.288c-1.643-0.327-3.331 0.182-4.516 1.367l-2.973 2.973C20.622 21.964 20.111 23.652 20.439 25.296zM39.464 33.121l-2.343 2.344c-1.171 1.168-3.074 1.167-4.243 0L32.414 35 39 28.414l0.464 0.465c0.567 0.566 0.879 1.319 0.879 2.121S40.031 32.555 39.464 33.121zM23.221 22.193l2.973-2.973c0.569-0.568 1.332-0.879 2.119-0.879 0.196 0 0.395 0.02 0.591 0.059l1.441 0.288c0.706 0.142 1.338 0.532 1.78 1.101l5.544 7.128-6.751 6.752-7.128-5.544c-0.568-0.442-0.959-1.074-1.101-1.78L22.4 24.903C22.203 23.917 22.51 22.904 23.221 22.193z" fill="#000000" data-fill-palette-color="quaternary"></path><path d="M51.664 21.75l7.716-6.001c0.994-0.773 1.655-1.883 1.862-3.126l0.405-2.429c0.265-1.589-0.257-3.218-1.396-4.356l-2.089-2.09c-1.14-1.139-2.77-1.662-4.357-1.396l-2.429 0.404c-1.242 0.207-2.352 0.868-3.125 1.862l-6.005 7.721-1.125 1.125c-0.945 0.944-1.465 2.199-1.465 3.535s0.521 2.592 1.465 3.535l2.343 2.344c0.975 0.975 2.255 1.462 3.536 1.462 1.28-0.001 2.561-0.487 3.536-1.462L51.664 21.75zM49.831 5.848c0.464-0.597 1.13-0.994 1.875-1.118l2.43-0.404c0.951-0.158 1.93 0.154 2.614 0.837l2.089 2.09c0.684 0.684 0.997 1.66 0.838 2.614l-0.405 2.429c-0.124 0.745-0.521 1.411-1.117 1.875l-7.07 5.499-6.751-6.752L49.831 5.848zM49.122 21.465c-1.171 1.168-3.074 1.167-4.243 0l-2.343-2.344c-0.567-0.566-0.879-1.319-0.879-2.121s0.312-1.555 0.879-2.121L43 14.414 49.586 21 49.122 21.465z" fill="#000000" data-fill-palette-color="quaternary"></path><rect x="36" y="43" width="2" height="2" fill="#000000" data-fill-palette-color="quaternary"></rect><rect x="40" y="41" width="2" height="2" fill="#000000" data-fill-palette-color="quaternary"></rect><rect x="44" y="44" width="2" height="2" fill="#000000" data-fill-palette-color="quaternary"></rect><rect x="46" y="33" width="2" height="2" fill="#000000" data-fill-palette-color="quaternary"></rect><rect x="46" y="28" width="2" height="2" fill="#000000" data-fill-palette-color="quaternary"></rect><rect x="45" y="38" width="2" height="2" fill="#000000" data-fill-palette-color="quaternary"></rect><rect x="27.172" y="25" transform="matrix(0.7071 -0.7071 0.7071 0.7071 -9.598 28.8284)" width="5.657" height="2" fill="#000000" data-fill-palette-color="quaternary"></rect><path d="M55 12c0-1.654-1.346-3-3-3s-3 1.346-3 3 1.346 3 3 3S55 13.654 55 12zM51 12c0-0.552 0.449-1 1-1s1 0.448 1 1-0.449 1-1 1S51 12.552 51 12z" fill="#000000" data-fill-palette-color="quaternary"></path><rect x="26" y="6" width="2" height="8" fill="#000000" data-fill-palette-color="quaternary"></rect><rect x="26" y="2" width="2" height="2" fill="#000000" data-fill-palette-color="quaternary"></rect><rect x="21" y="8" width="2" height="8" fill="#000000" data-fill-palette-color="quaternary"></rect><rect x="21" y="4" width="2" height="2" fill="#000000" data-fill-palette-color="quaternary"></rect></svg></g></svg></g></svg></g></svg></g></svg></g><defs></defs></svg><rect width="395.52" height="96.26830503107158" fill="none" stroke="none" visibility="hidden"></rect></g></svg></g></svg>